HIERARCHY
ROOT Hips
{
	OFFSET 0.000000 0.000000 0.000000
	CHANNELS 6 Xposition Yposition Zposition Zrotation Yrotation Xrotation 
	JOINT LeftUpLeg_virtual
	{
		OFFSET 0.000000 0.000000 0.000000
		CHANNELS 3 Zrotation Yrotation Xrotation
		JOINT LeftUpLeg
		{
			OFFSET 8.479694 -4.795517 -0.379053
			CHANNELS 3 Zrotation Yrotation Xrotation
			JOINT LeftLeg
			{
				OFFSET 0.485052 -32.551468 0.112863
				CHANNELS 3 Zrotation Yrotation Xrotation
				JOINT LeftFoot
				{
					OFFSET 0.438033 -32.635670 -3.012641
					CHANNELS 3 Zrotation Yrotation Xrotation
					JOINT LeftToeBase
					{
						OFFSET 0.970169 -13.225353 11.864223
						CHANNELS 3 Zrotation Yrotation Xrotation
						End Site
						{
							OFFSET 0.000000 0.000000 0.000000
						}
					}
				}
			}
		}
	}
	JOINT RightUpLeg_virtual
	{
		OFFSET 0.000000 0.000000 0.000000
		CHANNELS 3 Zrotation Yrotation Xrotation
		JOINT RightUpLeg
		{
			OFFSET -8.479694 -4.795517 -0.379053
			CHANNELS 3 Zrotation Yrotation Xrotation
			JOINT RightLeg
			{
				OFFSET -0.484100 -32.551483 0.112903
				CHANNELS 3 Zrotation Yrotation Xrotation
				JOINT RightFoot
				{
					OFFSET -0.438985 -32.635651 -3.012681
					CHANNELS 3 Zrotation Yrotation Xrotation
					JOINT RightToeBase
					{
						OFFSET -0.970169 -13.225354 11.864223
						CHANNELS 3 Zrotation Yrotation Xrotation
						End Site
						{
							OFFSET 0.000000 0.000000 0.000000
						}
					}
				}
			}
		}
	}
	JOINT Spine_virtual
	{
		OFFSET 0.000000 0.000000 0.000000
		CHANNELS 3 Zrotation Yrotation Xrotation
		JOINT Spine
		{
			OFFSET 0.000000 7.722015 1.166203
			CHANNELS 3 Zrotation Yrotation Xrotation
			JOINT Spine1
			{
				OFFSET 0.000000 12.024086 0.248766
				CHANNELS 3 Zrotation Yrotation Xrotation
				JOINT Spine2
				{
					OFFSET -0.000000 11.503036 -0.491240
					CHANNELS 3 Zrotation Yrotation Xrotation
					JOINT Neck_virtual
					{
						OFFSET 0.000000 0.000000 0.000000
						CHANNELS 3 Zrotation Yrotation Xrotation
						JOINT Neck
						{
							OFFSET 0.000000 18.430687 -3.123054
							CHANNELS 3 Zrotation Yrotation Xrotation
							JOINT Head
							{
								OFFSET -0.000000 9.051071 1.034021
								CHANNELS 3 Zrotation Yrotation Xrotation
								End Site
								{
									OFFSET 0.000000 0.000000 0.000000
								}
							}
						}
					}
					JOINT LeftShoulder_virtual
					{
						OFFSET 0.000000 0.000000 0.000000
						CHANNELS 3 Zrotation Yrotation Xrotation
						JOINT LeftShoulder
						{
							OFFSET 6.197824 13.665230 -4.064723
							CHANNELS 3 Zrotation Yrotation Xrotation
							JOINT LeftArm
							{
								OFFSET 7.778132 -0.187073 -1.709282
								CHANNELS 3 Zrotation Yrotation Xrotation
								JOINT LeftForeArm
								{
									OFFSET 21.954697 0.000000 -2.041093
									CHANNELS 3 Zrotation Yrotation Xrotation
									JOINT LeftHand
									{
										OFFSET 22.992908 0.000000 -0.870901
										CHANNELS 3 Zrotation Yrotation Xrotation
										End Site
										{
											OFFSET 0.000000 0.000000 0.000000
										}
									}
								}
							}
						}
					}
					JOINT RightShoulder_virtual
					{
						OFFSET 0.000000 0.000000 0.000000
						CHANNELS 3 Zrotation Yrotation Xrotation
						JOINT RightShoulder
						{
							OFFSET -6.197824 13.665230 -4.064723
							CHANNELS 3 Zrotation Yrotation Xrotation
							JOINT RightArm
							{
								OFFSET -7.778132 -0.187073 -1.709282
								CHANNELS 3 Zrotation Yrotation Xrotation
								JOINT RightForeArm
								{
									OFFSET -21.954697 0.000000 -2.041093
									CHANNELS 3 Zrotation Yrotation Xrotation
									JOINT RightHand
									{
										OFFSET -22.992908 0.000000 -0.870901
										CHANNELS 3 Zrotation Yrotation Xrotation
										End Site
										{
											OFFSET 0.000000 0.000000 0.000000
										}
									}
								}
							}
						}
					}
				}
			}
		}
	}
}
MOTION
Frames: 7
Frame Time: 0.033333
53.020973 78.872437 -63.158901 179.890053 -24.966324 -179.972930 -1.214226 -0.327614 8.848844 5.911292 -8.632592 -33.294884 9.365759 10.099790 31.440317 -4.027656 0.428631 -8.859383 0.000000 0.000000 0.000000 2.720376 -0.995491 8.642528 -0.908071 8.389599 -26.025036 1.210105 6.648044 33.488991 11.474905 11.930549 -15.390663 0.000000 0.000000 0.000000 2.823096 2.073934 -5.591033 -2.024855 -2.300313 -6.538713 -1.930229 -1.600893 12.094903 0.020145 0.067992 -0.042575 -2.172581 0.097965 12.420681 2.588998 -3.467037 -2.178000 0.000000 0.000000 0.000000 -0.500127 0.562167 9.768201 -10.142108 -9.536133 2.751886 -57.794554 -4.900774 11.399499 0.092235 -22.427525 3.157808 0.000000 0.000000 0.000000 -5.110671 2.123637 8.900229 29.338862 3.425669 8.964920 49.864923 4.841169 13.716753 -7.346656 26.630423 -3.880613 0.000000 0.000000 0.000000 
53.037441 78.883781 -63.134155 179.897757 -24.954277 -179.946306 -1.198334 -0.360511 8.884577 5.928770 -8.587841 -33.255505 9.700021 10.425562 31.821653 -3.695193 0.807778 -8.477837 0.000000 0.000000 0.000000 2.808207 -0.924733 8.669495 -0.777421 8.534233 -25.907428 1.622767 6.843840 33.609974 12.031873 12.478108 -15.069453 0.000000 0.000000 0.000000 2.829213 1.938468 -5.623877 -2.017514 -2.165974 -6.515860 -1.887335 -1.439342 12.087669 0.020015 0.019413 0.030376 -2.183616 -0.088345 12.379341 2.546297 -3.429561 -2.192697 0.000000 0.000000 0.000000 -0.565242 0.626630 9.759164 -10.117810 -9.637536 2.671585 -57.773490 -5.106159 11.407558 0.087033 -22.392452 3.156427 0.000000 0.000000 0.000000 -5.151144 2.111429 8.830061 29.427218 3.415893 8.963570 49.772599 4.805181 13.714320 -7.319157 26.360125 -3.840103 0.000000 0.000000 0.000000 
53.038502 78.895073 -63.132027 179.915352 -25.064605 -179.945855 -1.188194 -0.390960 8.867507 5.953700 -8.606417 -33.278362 9.709913 10.394637 31.870841 -3.709473 0.782220 -8.443588 0.000000 0.000000 0.000000 2.775944 -0.964725 8.658209 -0.718038 8.516666 -25.800923 1.611907 6.857108 33.471035 12.056557 12.438346 -15.026621 0.000000 0.000000 0.000000 2.827795 1.885741 -5.605404 -1.985555 -2.155650 -6.529167 -1.890017 -1.507858 12.111398 0.019259 -0.019544 0.001638 -2.207351 -0.033780 12.392075 2.432580 -3.383592 -2.202123 0.000000 0.000000 0.000000 -0.574396 0.627139 9.726685 -10.081395 -9.484332 2.740163 -57.756530 -5.341643 11.583536 0.168329 -22.392009 3.092405 0.000000 0.000000 0.000000 -5.125298 2.173009 8.887718 29.382815 3.417585 8.895161 49.727233 4.918542 13.580632 -7.372647 26.074022 -3.967110 0.000000 0.000000 0.000000 
53.034542 78.911049 -63.152084 179.929039 -25.192039 -179.944161 -1.180941 -0.418862 8.837037 6.005773 -8.647096 -33.274981 9.722063 10.479588 31.909073 -3.784728 0.701505 -8.406199 0.000000 0.000000 0.000000 2.728303 -0.979807 8.642494 -0.629330 8.437216 -25.683060 1.595990 6.884497 33.329260 12.091276 12.388788 -14.979699 0.000000 0.000000 0.000000 2.840731 1.821784 -5.560468 -1.956071 -2.071226 -6.589203 -1.895272 -1.405906 12.176981 0.034873 -0.007819 -0.074642 -2.216229 -0.030949 12.366160 2.314896 -3.439927 -2.265723 0.000000 0.000000 0.000000 -0.547613 0.479440 9.720959 -9.986257 -9.489435 2.649600 -57.735323 -5.346831 11.484927 0.160265 -22.303320 3.111094 0.000000 0.000000 0.000000 -5.110456 2.141315 8.917531 29.368704 3.383389 8.787321 49.681239 4.990728 13.586514 -7.402958 25.765224 -3.997500 0.000000 0.000000 0.000000 
53.017029 78.925194 -63.182209 179.902115 -25.390385 -179.942864 -1.217683 -0.435783 8.796141 6.013936 -8.652481 -33.234560 9.639291 10.456784 31.908571 -3.818370 0.696815 -8.389240 0.000000 0.000000 0.000000 2.647536 -1.013441 8.624776 -0.536111 8.272521 -25.565659 1.591755 6.906397 33.241001 12.151517 12.340946 -14.968095 0.000000 0.000000 0.000000 2.822014 1.874325 -5.571094 -1.921167 -2.150875 -6.517241 -1.934770 -1.537683 12.083823 -0.001364 0.058557 0.023493 -2.204724 0.088222 12.302007 2.237162 -3.565699 -2.343343 0.000000 0.000000 0.000000 -0.526300 0.650888 9.707798 -9.927374 -9.499170 2.525183 -57.704075 -5.382362 11.408105 0.104872 -22.151191 3.162081 0.000000 0.000000 0.000000 -5.078513 2.192903 8.864588 29.403022 3.313142 8.741240 49.411641 5.160616 13.652586 -7.465928 25.618380 -4.061035 0.000000 0.000000 0.000000 
52.990658 78.929108 -63.206665 179.892143 -25.496941 -179.944421 -1.200911 -0.448229 8.753547 5.976748 -8.684096 -33.176602 9.623539 10.428158 31.895846 -3.859369 0.723607 -8.411065 0.000000 0.000000 0.000000 2.580339 -0.938019 8.574525 -0.438832 8.076283 -25.487807 1.574551 6.938685 33.261474 12.204950 12.266164 -14.981031 0.000000 0.000000 0.000000 2.806533 1.855235 -5.549308 -1.870868 -2.097955 -6.512436 -1.950661 -1.508536 12.116998 0.009098 0.079963 -0.060605 -2.186106 0.236471 12.333583 2.092595 -3.622244 -2.393291 0.000000 0.000000 0.000000 -0.523739 0.628343 9.757933 -9.909490 -9.455216 2.405950 -57.777964 -5.375561 11.251032 0.118854 -21.935093 3.103786 0.000000 0.000000 0.000000 -5.022298 2.112639 8.973066 29.208471 3.257954 8.578932 49.434874 5.076580 13.973291 -7.544942 25.948452 -4.330790 0.000000 0.000000 0.000000 
52.971214 78.924110 -63.214828 179.903385 -25.598120 -179.934340 -1.217289 -0.422683 8.707072 5.968394 -8.723148 -33.147424 9.544303 10.453144 31.835464 -3.939811 0.760113 -8.449900 0.000000 0.000000 0.000000 2.524022 -0.849029 8.523835 -0.370156 7.907640 -25.504705 1.564811 6.934059 33.340424 12.280997 12.190642 -15.033108 0.000000 0.000000 0.000000 2.773418 1.822910 -5.538048 -1.786546 -2.094461 -6.530053 -1.915338 -1.519090 12.079927 -0.030935 0.043101 0.030235 -2.175154 0.206729 12.223310 1.961967 -3.691131 -2.439148 0.000000 0.000000 0.000000 -0.500824 0.774341 9.706393 -9.918242 -9.411669 2.239731 -57.818228 -5.401017 11.122785 0.118930 -21.778101 3.133455 0.000000 0.000000 0.000000 -5.014823 2.273260 8.895648 29.036900 3.118017 8.463858 49.491370 4.597549 14.394243 -7.687428 26.826319 -4.646760 0.000000 0.000000 0.000000 
